<?xml version="1.0" encoding="utf-8"?><svg viewBox="0 0 30 25" xmlns="http://www.w3.org/2000/svg" xmlns:xlink="http://www.w3.org/1999/xlink"><style>:root>svg{display:none}:root>svg:target{display:block}</style><svg fill="none" viewBox="0 0 21 21" id="Shape" xmlns="http://www.w3.org/2000/svg"><path d="M13.003 3.638A1 1 0 0012.62 5.6l.383-1.963zm2.399 4.744A1 1 0 1017.365 8l-1.963.383zM12.922.01a1 1 0 00-.221 1.987l.22-1.987zm6.084 8.285a1 1 0 101.988-.224l-1.988.224zm.09 9.816h-1v.004l1-.004zm-1.972 1.809l-.108.994c.006 0 .012 0 .018.002l.09-.996zm-7.803-2.776l.544-.84-.008-.004-.536.844zm-5.425-5.426l.844-.536-.005-.007-.84.543zM1.12 3.877l-.996.09.001.016.995-.105zm1.799-1.97v-1 1zm2.713 0v1h.01l-.01-1zM7.44 3.462l.992-.13-.002-.01-.99.14zm.633 2.54l-.937.35.001.003.936-.352zm-.407 1.909l.707.707.004-.004-.71-.703zM6.518 9.059l-.707-.707a1 1 0 00-.162 1.201l.869-.494zm5.425 5.425l-.494.87a1 1 0 001.201-.163l-.707-.707zm1.148-1.148l-.703-.711-.004.004.707.707zM15 12.929l-.352.936h.003l.35-.936zm2.541.633l.14-.99-.01-.002-.13.992zM12.62 5.6a3.521 3.521 0 012.782 2.781L17.365 8a5.521 5.521 0 00-4.362-4.361L12.62 5.6zm.081-3.605a7.138 7.138 0 016.305 6.298l1.988-.224A9.138 9.138 0 0012.922.01L12.7 1.996zm5.394 13.402v2.712h2v-2.712h-2zm0 2.716a.809.809 0 01-.261.6l1.352 1.473c.582-.535.913-1.29.91-2.08l-2 .007zm-.261.6a.809.809 0 01-.62.209l-.18 1.992a2.808 2.808 0 002.152-.728l-1.352-1.474zm-.602.21a16.894 16.894 0 01-7.367-2.62l-1.088 1.678a18.894 18.894 0 008.24 2.93l.215-1.988zM9.857 16.3A16.632 16.632 0 014.74 11.18l-1.688 1.073a18.632 18.632 0 005.733 5.733l1.072-1.688zm-5.122-5.125a16.894 16.894 0 01-2.62-7.402l-1.99.211a18.894 18.894 0 002.931 8.278l1.679-1.087zm-2.62-7.386a.808.808 0 01.209-.618L.847 1.822a2.808 2.808 0 00-.723 2.146l1.992-.18zm.209-.618a.808.808 0 01.596-.263l-.002-2c-.788 0-1.54.332-2.071.915L2.324 3.17zm.595-.263h2.713v-2H2.919v2zm2.723 0a.808.808 0 01.808.695l1.98-.28A2.808 2.808 0 005.622.907l.02 2zm.807.686c.124.943.355 1.868.687 2.76l1.874-.7a10.61 10.61 0 01-.578-2.322l-1.983.262zm.688 2.762a.808.808 0 01-.182.852l1.422 1.407A2.808 2.808 0 009.01 5.65l-1.872.704zm-.178.848L5.811 8.352l1.414 1.414 1.148-1.148L6.96 7.203zm-1.31 2.35a15.467 15.467 0 005.8 5.8l.988-1.738a13.467 13.467 0 01-5.05-5.05l-1.738.988zm7.001 5.638l1.149-1.148-1.415-1.414-1.148 1.148 1.414 1.414zm1.145-1.144a.808.808 0 01.852-.182l.704-1.872a2.808 2.808 0 00-2.963.632l1.407 1.422zm.855-.181c.89.332 1.816.563 2.76.687l.26-1.983a10.612 10.612 0 01-2.321-.578l-.7 1.874zm2.75.686c.407.058.706.41.696.82l2 .05a2.808 2.808 0 00-2.416-2.85l-.28 1.98z" fill="#374044"/></svg><svg viewBox="0 0 20 25" id="clothes" xmlns="http://www.w3.org/2000/svg"><path fill-rule="evenodd" clip-rule="evenodd" d="M19.812 7.743l-1.58.309-.287 1.193 1.866-.333-.002 1.15-2.162.424-.287 1.191 2.448-.441-.002 1.143-2.744.537-.285 1.187 3.028-.546-.012 8.52-.752.998-.001 1.431-5.16-.047-.146-1.523-.863-.86-.79-11.058-.997-.228-3.74 10.413-1.08.669-.576 1.513-4.635-1.11.47-1.844-.561-1.194 4.4-16.197 1.307-.923L7.183.51l11.674 1.513-.002 1.516.96 1.204-.003 3zm-9.293-5.35L9.326 8.032l1.077.203L11.67 2.77l-1.151-.376zm3.065.494l-.393 5.86 1.11.087.485-5.786-1.202-.16z"/></svg><svg fill="none" viewBox="0 0 18 18" id="discard" xmlns="http://www.w3.org/2000/svg"><path d="M13.5 4.5l-9 9M4.5 4.5l9 9" stroke="#ACACAC" stroke-width="1.5" stroke-linecap="round" stroke-linejoin="round"/></svg><svg fill="none" viewBox="0 0 10 20" id="facebook" xmlns="http://www.w3.org/2000/svg"><path d="M6.49 20v-9.123h2.95l.44-3.555H6.49v-2.27c0-1.03.276-1.731 1.697-1.731L10 3.32V.14A23.4 23.4 0 007.359 0C4.745 0 2.956 1.657 2.956 4.7v2.622H0v3.555h2.956V20H6.49z" fill="#fff"/></svg><svg viewBox="0 0 30 17" id="footwear" xmlns="http://www.w3.org/2000/svg"><path fill-rule="evenodd" clip-rule="evenodd" d="M26.484 16.687c-2.199 0-24.961-.06-24.961-.06v-2.321l27.87-.454s.361 2.835-2.909 2.835zM1.674 12.31c-2.132-2.923-.058-9.001.948-9.001 1.007 0 2.075 1.71 4.15 1.665.76-.016 1.708-.59 2.926-1.182-.6-2.089 1.206-3.49 1.206-3.49L13.84 2.53c.28-.026.569-.04.866-.04 0 0 .78.55 1.97 1.337l-1.912 1.468.967 1.072 2.64-1.439c.409.26.837.528 1.277.798l-1.994 1.417.967 1.046 2.701-1.463c.474.274.95.54 1.42.793l-2.075 1.372.988 1.036 3.001-1.448c.939.427 1.783.735 2.439.845 2.41.402 2.307 3.366 2.307 3.366s-25.18-.38-27.727-.38zm10.374-5.995l-.482.273c.937 3.355-.659 3.048-8.173.53l-.198.336c12.451 6.654 11.59 1.692 8.853-1.139z"/></svg><svg fill="none" viewBox="0 0 20 20" id="instagram" xmlns="http://www.w3.org/2000/svg"><path d="M6.945 10a3.055 3.055 0 116.111 0 3.055 3.055 0 01-6.11 0zm-1.652 0a4.707 4.707 0 109.414 0 4.707 4.707 0 00-9.414 0zm8.5-4.894a1.1 1.1 0 102.2.001 1.1 1.1 0 00-2.2 0zM6.298 17.461c-.894-.04-1.38-.19-1.702-.315a2.849 2.849 0 01-1.055-.686 2.829 2.829 0 01-.686-1.053c-.125-.323-.274-.809-.315-1.703-.044-.966-.053-1.256-.053-3.704 0-2.448.01-2.737.053-3.704.04-.894.19-1.379.315-1.703.167-.428.365-.733.686-1.054.32-.321.626-.52 1.055-.686.322-.126.808-.274 1.702-.315.966-.044 1.256-.053 3.703-.053s2.738.01 3.705.053c.894.04 1.379.19 1.702.315a2.84 2.84 0 011.055.686c.32.32.519.626.685 1.054.126.323.275.809.316 1.703.044.967.053 1.256.053 3.704 0 2.448-.009 2.738-.053 3.704-.04.894-.19 1.38-.316 1.703a2.84 2.84 0 01-.685 1.053c-.32.32-.627.52-1.055.686-.322.126-.808.275-1.702.316-.966.044-1.257.053-3.705.053-2.448 0-2.737-.01-3.703-.053zM6.22.89c-.976.044-1.643.199-2.225.426a4.496 4.496 0 00-1.624 1.057c-.51.51-.823 1.02-1.057 1.624-.227.582-.382 1.249-.426 2.225C.844 7.198.833 7.51.833 10c0 2.49.01 2.802.056 3.78.044.975.199 1.642.426 2.224a4.481 4.481 0 001.057 1.624c.51.51 1.02.823 1.624 1.057.583.227 1.25.382 2.225.426.978.045 1.29.056 3.78.056 2.489 0 2.801-.01 3.779-.056.976-.044 1.642-.199 2.225-.426a4.51 4.51 0 001.624-1.057c.51-.51.822-1.021 1.057-1.624.227-.583.382-1.249.426-2.225.044-.978.055-1.29.055-3.779 0-2.49-.01-2.802-.055-3.78-.045-.975-.2-1.642-.426-2.224a4.508 4.508 0 00-1.057-1.624 4.486 4.486 0 00-1.623-1.057c-.584-.227-1.25-.382-2.226-.426-.977-.045-1.29-.056-3.779-.056-2.49 0-2.802.01-3.78.056z" fill="#fff"/></svg><svg fill="none" viewBox="0 0 24 24" id="open" xmlns="http://www.w3.org/2000/svg"><path d="M4 21v-7M4 10V3M12 21v-9M12 8V3M20 21v-5M20 12V3M1 14h6M9 8h6M17 16h6" stroke="#fff" stroke-width="2" stroke-linecap="round" stroke-linejoin="round"/></svg><svg fill="none" viewBox="0 0 24 24" id="search" xmlns="http://www.w3.org/2000/svg"><path clip-rule="evenodd" d="M10.5 18a7.5 7.5 0 100-15 7.5 7.5 0 000 15z" stroke="#374044" stroke-width="2" stroke-linecap="round" stroke-linejoin="round"/><path d="M21 21l-5.2-5.2" stroke="#374044" stroke-width="2" stroke-linecap="round" stroke-linejoin="round"/></svg><svg fill="none" viewBox="0 0 20 13" id="vk" xmlns="http://www.w3.org/2000/svg"><path fill-rule="evenodd" clip-rule="evenodd" d="M19.541 1.013c.14-.488 0-.846-.662-.846h-2.188c-.556 0-.812.31-.951.651 0 0-1.113 2.854-2.69 4.708-.51.537-.741.707-1.02.707-.138 0-.34-.17-.34-.658V1.013c0-.585-.161-.846-.625-.846H7.627a.54.54 0 00-.557.529c0 .555.788.683.87 2.244v3.391c0 .744-.128.878-.406.878-.742 0-2.546-2.867-3.617-6.147-.21-.638-.42-.895-.979-.895H.75c-.625 0-.75.31-.75.651 0 .61.742 3.635 3.454 7.636 1.808 2.731 4.355 4.213 6.673 4.213 1.391 0 1.563-.33 1.563-.896V9.706c0-.658.132-.789.572-.789.325 0 .881.17 2.18 1.488 1.483 1.561 1.727 2.262 2.562 2.262h2.188c.625 0 .938-.33.757-.979-.197-.647-.905-1.585-1.845-2.698-.51-.634-1.275-1.317-1.507-1.659-.324-.439-.232-.634 0-1.024 0 0 2.666-3.952 2.944-5.294z" fill="#fff"/></svg></svg>